HIERARCHY
ROOT SpineBase
{
  OFFSET 0.000000 0.000000 0.000000
  CHANNELS 6 Xposition Yposition Zposition Zrotation Xrotation Yrotation
  JOINT SpineMid
  {
    OFFSET 0.000000 28.624019 0.000000
    CHANNELS 3 Zrotation Xrotation Yrotation
    JOINT SpineShoulder
    {
      OFFSET -0.160920 21.412818 -0.572971
      CHANNELS 3 Zrotation Xrotation Yrotation
      JOINT Neck
      {
        OFFSET -0.110077 7.147657 -0.485323
        CHANNELS 3 Zrotation Xrotation Yrotation
        JOINT Head
        {
          OFFSET -2.441022 9.638507 6.343010
          CHANNELS 3 Zrotation Xrotation Yrotation
          End Site
          {
            OFFSET 0 0 0
          }
        }
      }
      JOINT ShoulderLeft
      {
        OFFSET -4.546725 -3.280186 -10.540491
        CHANNELS 3 Zrotation Xrotation Yrotation
        JOINT ElbowLeft
        {
          OFFSET -4.584094 -20.283131 6.453203
          CHANNELS 3 Zrotation Xrotation Yrotation
          JOINT WristLeft
          {
            OFFSET -3.682034 -19.325442 -1.179531
            CHANNELS 3 Zrotation Xrotation Yrotation
            JOINT HandLeft
            {
              OFFSET 0.952192 -2.834781 -0.136121
              CHANNELS 3 Zrotation Xrotation Yrotation
              JOINT HandTipLeft
              {
                OFFSET 0.118951 -2.243932 -0.993321
                CHANNELS 3 Zrotation Xrotation Yrotation
                End Site
                {
                  OFFSET 0 0 0
                }
              }
              JOINT ThumbLeft
              {
                OFFSET -3.278367 0.793470 -1.586453
                CHANNELS 3 Zrotation Xrotation Yrotation
                End Site
                {
                  OFFSET 0 0 0
                }
              }
            }
          }
        }
      }
      JOINT ShoulderRight
      {
        OFFSET 4.286967 -3.495250 -8.740979
        CHANNELS 3 Zrotation Xrotation Yrotation
        JOINT ElbowRight
        {
          OFFSET 0.396219 -21.630168 -7.246402
          CHANNELS 3 Zrotation Xrotation Yrotation
          JOINT WristRight
          {
            OFFSET -6.666856 -21.296088 -1.164752
            CHANNELS 3 Zrotation Xrotation Yrotation
            JOINT HandRight
            {
              OFFSET -0.835421 -8.027844 0.580225
              CHANNELS 3 Zrotation Xrotation Yrotation
              JOINT HandTipRight
              {
                OFFSET -2.922479 -6.386188 -0.654058
                CHANNELS 3 Zrotation Xrotation Yrotation
                End Site
                {
                  OFFSET 0 0 0
                }
              }
              JOINT ThumbRight
              {
                OFFSET 5.731102 0.182869 1.478396
                CHANNELS 3 Zrotation Xrotation Yrotation
                End Site
                {
                  OFFSET 0 0 0
                }
              }
            }
          }
        }
      }
    }
  }
  JOINT HipLeft
  {
    OFFSET -6.767101 0.832908 0.702005
    CHANNELS 3 Zrotation Xrotation Yrotation
    JOINT KneeLeft
    {
      OFFSET 20.773880 -24.984583 -6.282527
      CHANNELS 3 Zrotation Xrotation Yrotation
      JOINT AnkleLeft
      {
        OFFSET 6.530036 -45.670256 -2.204770
        CHANNELS 3 Zrotation Xrotation Yrotation
        JOINT FootLeft
        {
          OFFSET 1.830866 -1.866516 -11.671964
          CHANNELS 3 Zrotation Xrotation Yrotation
          End Site
          {
            OFFSET 0 0 0
          }
        }
      }
    }
  }
  JOINT HipRight
  {
    OFFSET 6.243888 1.612682 -6.985727
    CHANNELS 3 Zrotation Xrotation Yrotation
    JOINT KneeRight
    {
      OFFSET 2.500870 -34.973940 -1.603137
      CHANNELS 3 Zrotation Xrotation Yrotation
      JOINT AnkleRight
      {
        OFFSET 9.678673 -33.388347 -0.036082
        CHANNELS 3 Zrotation Xrotation Yrotation
        JOINT FootRight
        {
          OFFSET 1.849295 -1.883583 -11.685969
          CHANNELS 3 Zrotation Xrotation Yrotation
          End Site
          {
            OFFSET 0 0 0
          }
        }
      }
    }
  }
}
MOTION
Frames: 14
Frame Time: 0.033333
22.584342 71.132350 271.760719 1.274953 1.419021 33.229455 -0.572596 -0.532127 -33.207712 -0.201383 -0.241024 0.033283 0.948352 1.814954 -0.721264 0.000000 0.000000 0.000000 -1.065617 0.771981 -0.396533 3.149619 -0.334268 0.026480 -144.647757 -10.187543 -157.906037 -109.645894 31.441034 -169.298099 0.000000 0.000000 0.000000 0.000000 0.000000 0.000000 1.212368 0.072783 -0.756426 2.469165 1.208328 -0.127848 -8.192748 -4.947751 0.568393 10.599234 -3.046211 2.022369 0.000000 0.000000 0.000000 0.000000 0.000000 0.000000 -1.844603 0.712261 -32.250586 -1.546272 -1.952177 -1.088439 2.564492 1.312878 -2.089718 0.000000 0.000000 0.000000 -4.060178 -2.025042 -33.434499 1.003855 2.502755 0.110867 0.395994 0.396991 -2.017974 0.000000 0.000000 0.000000
22.608981 71.127171 271.776097 1.376080 1.345807 33.916177 -0.490090 -0.569311 -33.887910 -0.146185 -0.235664 0.045721 1.653573 2.097513 -1.317348 0.000000 0.000000 0.000000 -1.336421 0.667952 -0.382243 3.377699 -0.132310 -0.033416 -141.405615 -9.343364 -94.590301 147.681368 74.025913 -57.160316 0.000000 0.000000 0.000000 0.000000 0.000000 0.000000 1.191647 0.198110 -0.852935 2.344008 1.250986 -0.094845 -8.493380 -5.495933 0.600544 11.706751 -2.128350 1.546803 0.000000 0.000000 0.000000 0.000000 0.000000 0.000000 -2.525840 2.198776 -31.954262 0.039802 -3.436633 -2.181800 2.223691 1.994615 -2.282258 0.000000 0.000000 0.000000 -4.162449 -1.935646 -34.122721 0.990095 2.586035 0.117023 0.441523 0.389830 -2.300466 0.000000 0.000000 0.000000
22.643178 71.116246 271.787052 1.550061 1.317120 34.737306 -0.392002 -0.619566 -34.700277 -0.089478 -0.221973 0.062606 2.125768 2.155270 -1.868677 0.000000 0.000000 0.000000 -1.542800 0.526839 -0.328974 3.320100 -0.008342 -0.122704 -28.737694 -4.802153 -1.074970 -3.647823 -11.089943 10.509704 0.000000 0.000000 0.000000 0.000000 0.000000 0.000000 1.024063 0.243757 -0.938821 2.118601 1.362349 -0.086172 -7.832843 -5.928815 0.737742 13.270069 -3.376951 2.051602 0.000000 0.000000 0.000000 0.000000 0.000000 0.000000 -2.934983 3.314460 -32.033279 1.225503 -4.547192 -2.969920 1.731417 2.450920 -2.112582 0.000000 0.000000 0.000000 -4.418074 -1.867027 -34.951187 1.008040 2.737869 0.125300 0.429555 0.402602 -2.214550 0.000000 0.000000 0.000000
22.683458 71.096966 271.796371 1.793362 1.309427 34.355503 -0.272149 -0.691729 -34.307584 -0.035765 -0.205247 0.082898 2.533480 1.927930 -2.494047 0.000000 0.000000 0.000000 -1.924366 -0.374932 -0.142752 3.033023 -3.564487 0.592697 -9.435533 -29.736948 -13.534390 -17.328306 1.869274 27.348053 0.000000 0.000000 0.000000 0.000000 0.000000 0.000000 0.830764 0.182057 -1.048600 1.733422 1.493344 -0.031682 -7.544294 -5.967430 0.768569 13.316895 -4.221072 2.501088 0.000000 0.000000 0.000000 0.000000 0.000000 0.000000 -2.891947 3.693176 -31.375873 1.582227 -5.134968 -3.275593 1.887870 3.353261 -5.113708 0.000000 0.000000 0.000000 -4.986273 -1.623349 -34.557603 1.398919 2.848848 0.104629 1.077088 1.091555 -5.257912 0.000000 0.000000 0.000000
22.731284 71.062015 271.790322 2.094963 1.336126 35.367993 -0.166370 -0.743775 -35.308499 -0.005257 -0.181933 0.103932 2.903014 1.555723 -3.128843 0.000000 0.000000 0.000000 -1.841157 0.230030 -0.157153 3.135738 -2.671934 0.241704 -7.819979 -14.886082 -6.194379 -9.602451 -13.054499 11.690858 0.000000 0.000000 0.000000 0.000000 0.000000 0.000000 0.754979 0.054984 -1.208102 1.149776 1.689193 0.054601 -6.871306 -6.444969 0.890373 11.851033 -3.858942 2.457230 0.000000 0.000000 0.000000 0.000000 0.000000 0.000000 -2.640515 3.953841 -32.240895 0.988408 -5.553775 -3.475336 1.889518 3.371187 -3.952264 0.000000 0.000000 0.000000 -5.352173 -1.648523 -35.590345 1.305451 3.110695 0.126939 0.854038 0.967448 -4.108848 0.000000 0.000000 0.000000
22.769792 71.028430 271.786787 2.427484 1.384008 37.485728 -0.092576 -0.777561 -37.415579 -0.002290 -0.148394 0.123152 3.338207 1.158464 -3.779754 0.000000 0.000000 0.000000 -1.757867 0.092207 -0.016241 3.896423 3.250546 -1.368101 -14.063200 16.051391 9.283411 -10.339646 -49.710959 -14.034914 0.000000 0.000000 0.000000 0.000000 0.000000 0.000000 0.795542 -0.149801 -1.395653 0.562676 1.968774 0.149536 -6.217711 -6.696090 1.020840 11.528636 -3.763500 2.374545 0.000000 0.000000 0.000000 0.000000 0.000000 0.000000 -0.867349 3.046891 -34.829152 -3.088386 -5.464033 -3.160961 2.922498 2.346550 0.133957 0.000000 0.000000 0.000000 -5.521200 -1.869435 -37.752279 0.801942 3.463104 0.186355 -0.000000 0.000000 0.000000 0.000000 0.000000 0.000000
22.815801 71.018185 271.793485 2.789477 1.425250 40.418326 -0.069264 -0.788175 -40.339311 -0.016635 -0.143332 0.140402 3.801013 0.756864 -4.428585 0.000000 0.000000 0.000000 -1.594389 0.052874 0.129372 5.953322 14.927749 -4.805145 -16.617727 19.194270 15.737121 -15.604923 -63.309086 -26.547765 0.000000 0.000000 0.000000 0.000000 0.000000 0.000000 1.074405 -0.345679 -1.646264 -0.298871 2.339615 0.292139 -5.305389 -6.679598 1.172048 12.409189 -4.704508 2.658779 0.000000 0.000000 0.000000 0.000000 0.000000 0.000000 -1.215945 3.524020 -37.648057 -3.013251 -5.450072 -3.271851 1.715599 0.745796 8.367290 0.000000 0.000000 0.000000 -5.560767 -2.179304 -40.739454 0.010854 3.839881 0.273396 -1.450363 -1.485329 8.276953 0.000000 0.000000 0.000000
22.840137 71.069000 271.829091 3.119044 1.399864 43.950129 -0.071288 -0.748652 -43.864850 -0.036933 -0.146493 0.153547 4.522352 0.427136 -5.171798 0.000000 0.000000 0.000000 -1.353725 0.107342 0.267828 9.875029 28.544105 -10.019263 -20.532732 11.411674 17.602343 -9.049613 -68.719091 -26.155887 0.000000 0.000000 0.000000 0.000000 0.000000 0.000000 1.483056 -0.490710 -1.903795 -1.055987 2.703692 0.439112 -4.653679 -6.838203 1.331811 13.014847 -5.251200 2.821098 0.000000 0.000000 0.000000 0.000000 0.000000 0.000000 -2.956531 5.101572 -40.779685 0.101133 -5.067948 -3.475593 -0.731147 -1.971227 18.779036 0.000000 0.000000 0.000000 -5.434976 -2.521430 -44.326009 -0.984079 4.181599 0.379778 -3.194681 -2.019460 20.385258 0.000000 0.000000 0.000000
22.833338 71.175641 271.897860 3.380088 1.325966 47.768020 -0.071979 -0.671807 -47.678810 -0.053684 -0.160544 0.162851 5.104638 0.286569 -5.726674 0.000000 0.000000 0.000000 -1.097819 0.218445 0.381292 15.635887 40.578441 -16.796064 -22.209855 3.342021 18.283575 -55.436153 -75.686884 -67.657545 0.000000 0.000000 0.000000 0.000000 0.000000 0.000000 1.939385 -0.686649 -2.137082 -1.726299 3.021166 0.613379 -3.811461 -6.386848 1.450442 14.788788 -7.285010 3.710488 0.000000 0.000000 0.000000 0.000000 0.000000 0.000000 -5.558016 7.706677 -43.907763 5.652750 -4.308799 -3.750873 -3.827172 -5.508551 30.367544 0.000000 0.000000 0.000000 -5.186007 -2.890187 -48.195333 -2.070538 4.440942 0.492685 -4.336716 -5.286004 31.038724 0.000000 0.000000 0.000000
22.792771 71.344745 272.007669 3.579041 1.282898 51.817791 -0.073768 -0.555184 -51.728432 -0.074643 -0.186723 0.168168 5.385547 -0.118736 -6.058163 0.000000 0.000000 0.000000 -0.890561 0.238108 0.465329 22.142453 49.045250 -24.024184 -26.334479 -8.699186 14.420722 -7.869532 -57.446109 -23.214639 0.000000 0.000000 0.000000 0.000000 0.000000 0.000000 2.269757 -1.171138 -2.276897 -1.966895 3.860104 0.603630 -3.623825 -7.061240 1.668517 14.664042 -6.170970 3.022809 0.000000 0.000000 0.000000 0.000000 0.000000 0.000000 -8.527065 11.215887 -46.908653 12.892926 -3.343169 -4.179119 -7.047223 -9.136657 41.164417 0.000000 0.000000 0.000000 -5.000365 -3.309629 -52.298685 -3.982668 4.759166 0.705781 -3.431332 -11.312804 40.573217 0.000000 0.000000 0.000000
22.764010 71.536964 272.110104 3.676748 1.086704 55.493601 -0.129593 -0.433604 -55.403435 -0.098400 -0.230528 0.165686 5.902282 -0.655729 -6.526211 0.000000 0.000000 0.000000 -0.737843 0.442744 0.502026 27.698446 53.765117 -29.857094 -28.743932 -14.959169 12.102847 -2.989765 -38.371418 -16.469959 0.000000 0.000000 0.000000 0.000000 0.000000 0.000000 2.807426 -1.231936 -2.440223 -2.332268 4.250205 0.704091 -4.048549 -6.772499 1.625977 13.541022 -5.344513 2.507347 0.000000 0.000000 0.000000 0.000000 0.000000 0.000000 -11.476131 15.528502 -49.069753 21.338273 -2.436893 -4.831775 -10.339598 -12.143080 48.996164 0.000000 0.000000 0.000000 -4.615813 -3.594996 -56.007151 -5.087674 4.818491 0.811806 -1.443836 -19.619846 49.704929 0.000000 0.000000 0.000000
22.755051 71.710221 272.193405 3.733557 0.892108 58.171849 -0.245134 -0.381596 -58.078102 -0.091965 -0.299211 0.164213 6.582467 -1.133872 -7.131699 0.000000 0.000000 0.000000 -0.654112 0.772954 0.517514 30.493955 55.571174 -32.733958 -28.875133 -16.495305 12.111207 4.667260 -21.336349 -11.945175 0.000000 0.000000 0.000000 0.000000 0.000000 0.000000 3.119085 -0.907025 -2.553177 -2.499617 4.148103 0.819047 -5.042899 -6.422152 1.436054 11.667881 -4.435097 2.153904 0.000000 0.000000 0.000000 0.000000 0.000000 0.000000 -14.285394 19.811279 -49.967123 29.901568 -2.082511 -5.596135 -13.739508 -13.921166 53.430811 0.000000 0.000000 0.000000 -4.213966 -3.796782 -58.703391 -5.974701 4.668827 0.857063 5.554013 -35.923870 58.396612 0.000000 0.000000 0.000000
22.777140 71.865138 272.170944 3.783510 0.635199 59.118763 -0.354342 -0.352369 -59.018533 -0.090852 -0.356826 0.161854 5.989859 -1.856696 -7.021568 0.000000 0.000000 0.000000 -1.246772 -2.098910 1.134135 36.349738 58.822333 -38.643407 -30.500292 -17.110958 11.202545 10.224698 -16.693102 -10.359298 0.000000 0.000000 0.000000 0.000000 0.000000 0.000000 3.406586 -0.378370 -2.672544 -2.806623 3.871594 0.953856 -5.803755 -5.992666 1.246637 8.880683 -2.927363 1.580495 0.000000 0.000000 0.000000 0.000000 0.000000 0.000000 -15.210980 22.902994 -48.822036 35.170887 -4.563040 -6.534443 -16.125500 -13.352488 54.379720 0.000000 0.000000 0.000000 -3.707919 -3.777442 -59.640894 -6.487613 4.342422 0.836987 14.426807 -50.207241 63.813443 0.000000 0.000000 0.000000
22.849076 72.025054 272.024175 3.829417 0.446513 60.189073 -0.447429 -0.301916 -60.084182 -0.125099 -0.383676 0.156612 5.245462 -2.501625 -6.731691 0.000000 0.000000 0.000000 -0.696546 0.601495 0.687556 31.952364 56.474746 -34.232118 -30.691994 -16.303661 11.201640 12.110651 -17.204666 -9.974651 0.000000 0.000000 0.000000 0.000000 0.000000 0.000000 3.653001 0.053882 -2.754695 -3.059859 3.590610 1.055226 -6.128165 -5.517060 1.123328 6.995258 -1.904473 1.177073 0.000000 0.000000 0.000000 0.000000 0.000000 0.000000 -17.587295 24.911145 -49.334101 40.067445 -2.477903 -6.582326 -17.926487 -14.878488 55.506565 0.000000 0.000000 0.000000 -3.288944 -3.823564 -60.708746 -7.047495 3.913759 0.782736 17.422354 -51.922190 67.841580 0.000000 0.000000 0.000000
